<?xml version="1.0" standalone="no"?><!DOCTYPE svg PUBLIC "-//W3C//DTD SVG 1.1//EN" "http://www.w3.org/Graphics/SVG/1.1/DTD/svg11.dtd"><svg class="icon" width="64px" height="57.79px" viewBox="0 0 1134 1024" version="1.1" xmlns="http://www.w3.org/2000/svg"><path d="M567.135757 1023.995116a608.095561 608.095561 0 0 1-308.773912-82.80182L23.945732 1014.511346l69.631668-221.403498A450.557851 450.557851 0 0 1 0 519.874444C0 237.551113 254.423402 0 567.135757 0s567.135757 237.551113 567.135756 519.874444-254.423402 504.120673-567.135756 504.120672z m0-960.980032C285.615869 63.015084 63.015084 268.61755 63.015084 519.622383 63.015084 611.167547 81.919609 709.266279 141.783939 787.688551l-40.959804 149.660825 176.12716-52.523073A561.952766 561.952766 0 0 0 567.135757 960.980032c281.519888 0 504.120673-190.352815 504.120672-441.373402S848.655645 63.015084 567.135757 63.015084z m78.768855 330.829192H330.829191a31.507542 31.507542 0 0 1 0-63.015085h315.075421a31.507542 31.507542 0 0 1 0 63.015085z m-315.075421 94.522626h220.552795a31.507542 31.507542 0 1 1 0 63.015084H330.829191a31.507542 31.507542 0 1 1 0-63.015084z" fill="#484948" /></svg>