<?xml version="1.0" standalone="no"?><!DOCTYPE svg PUBLIC "-//W3C//DTD SVG 1.1//EN" "http://www.w3.org/Graphics/SVG/1.1/DTD/svg11.dtd"><svg class="icon" width="64px" height="64.00px" viewBox="0 0 1024 1024" version="1.1" xmlns="http://www.w3.org/2000/svg"><path d="M582.892308 299.323077L630.153846 346.584615c3.938462 3.938462 7.876923 7.876923 15.753846 11.815385 11.815385 11.815385 23.630769 23.630769 31.507693 35.446154V27.569231c-11.815385-3.938462-19.692308-7.876923-31.507693-7.876923C602.584615 7.876923 555.323077 0 512 0c-19.692308 0-39.384615 0-59.076923 3.938462-47.261538 3.938462-90.584615 15.753846-133.907692 35.446153l240.246153 240.246154 23.63077 19.692308z m63.015384-106.338462zM968.861538 283.569231c-3.938462-7.876923-11.815385-19.692308-15.753846-27.569231-23.630769-39.384615-47.261538-74.830769-82.707692-106.338462-11.815385-15.753846-27.569231-27.569231-43.323077-39.384615-35.446154-31.507692-74.830769-51.2-118.153846-70.892308v437.169231c0 3.938462 0 11.815385 3.938461 15.753846 0 15.753846 0 31.507692-3.938461 47.261539l259.938461-256zM827.076923 378.092308zM1016.123077 456.861538c-3.938462-47.261538-15.753846-90.584615-35.446154-133.907692l-240.246154 240.246154-19.692307 19.692308-43.323077 47.261538c-3.938462 3.938462-7.876923 7.876923-11.815385 15.753846-11.815385 11.815385-23.630769 23.630769-35.446154 31.507693h362.338462c3.938462-11.815385 7.876923-19.692308 7.876923-31.507693 11.815385-43.323077 15.753846-86.646154 15.753846-129.96923 3.938462-23.630769 3.938462-43.323077 0-59.076924z m-185.107692 189.046154zM389.907692 346.584615H27.569231c-3.938462 11.815385-7.876923 23.630769-7.876923 31.507693C7.876923 421.415385 0 464.738462 0 512c0 19.692308 0 39.384615 3.938462 59.076923 3.938462 47.261538 15.753846 90.584615 35.446153 133.907692l240.246154-240.246153 19.692308-19.692308L346.584615 393.846154c3.938462-3.938462 7.876923-7.876923 11.815385-15.753846 7.876923-11.815385 19.692308-19.692308 31.507692-31.507693z m-196.923077 35.446154zM413.538462 311.138462h63.015384c3.938462 0 11.815385 0 15.753846-3.938462 15.753846 0 31.507692 0 47.261539 3.938462L283.569231 55.138462c-7.876923 3.938462-19.692308 7.876923-27.569231 15.753846-39.384615 19.692308-74.830769 47.261538-106.338462 78.76923-11.815385 11.815385-27.569231 27.569231-39.384615 43.323077-27.569231 39.384615-51.2 78.769231-70.892308 118.153847h374.153847zM378.092308 196.923077zM437.169231 724.676923L393.846154 677.415385c-3.938462-3.938462-7.876923-7.876923-15.753846-11.815385-11.815385-11.815385-23.630769-23.630769-31.507693-35.446154v362.338462c11.815385 3.938462 19.692308 7.876923 31.507693 7.876923 43.323077 11.815385 86.646154 15.753846 129.96923 15.753846 19.692308 0 39.384615 0 59.076924-3.938462 47.261538-3.938462 90.584615-15.753846 133.907692-35.446153l-240.246154-240.246154-23.630769-11.815385z m-59.076923 110.276923zM55.138462 740.430769c3.938462 7.876923 11.815385 19.692308 15.753846 27.569231 23.630769 39.384615 47.261538 74.830769 82.707692 106.338462 15.753846 11.815385 27.569231 27.569231 43.323077 39.384615 35.446154 27.569231 74.830769 51.2 118.153846 70.892308V547.446154c0-3.938462 0-11.815385-3.938461-15.753846 0-15.753846 0-31.507692 3.938461-47.261539l-259.938461 256z m137.846153-94.523077zM606.523077 712.861538h-63.015385c-3.938462 0-11.815385 0-15.753846 3.938462-15.753846 0-31.507692 0-47.261538-3.938462l256 256c7.876923-3.938462 19.692308-11.815385 27.56923-15.753846 39.384615-23.630769 74.830769-47.261538 106.338462-82.707692 11.815385-11.815385 27.569231-27.569231 39.384615-43.323077 27.569231-35.446154 51.2-74.830769 70.892308-118.153846h-374.153846z m35.446154 118.153847z" /></svg>