<?xml version="1.0" standalone="no"?><!DOCTYPE svg PUBLIC "-//W3C//DTD SVG 1.1//EN" "http://www.w3.org/Graphics/SVG/1.1/DTD/svg11.dtd"><svg class="icon" width="64px" height="64.00px" viewBox="0 0 1024 1024" version="1.1" xmlns="http://www.w3.org/2000/svg"><path d="M951.496185 1017.958463H45.419299c-56.677805 0-44.236336-88.52387-44.236335-88.52387-1.382385-53.913034 44.236336-88.472671 44.236335-88.472671s232.39436-112.075623 265.571612-132.811406c27.033316-16.895823 39.218788-49.919476 42.85395-61.695352-78.847172-73.727226-153.495988-196.605936-153.495989-270.230762V265.582363C197.584101 135.484529 341.352192 0.010752 465.920484 0.010752h44.236335c116.22278-1.382385 269.718768 129.944236 265.520412 265.571611v110.642039c0 60.415366-50.636268 191.485989-132.043413 269.46277 3.379165 11.161483 15.513437 45.209125 43.007548 62.463344 33.126052 20.786982 264.854819 132.811405 264.854819 132.811406s45.516322 34.559637 44.133937 88.52387c0 0 12.39027 88.472671-44.133937 88.472671z m-44.133936-132.760206l-264.854819-132.760206s-66.200905-29.081295-66.200905-88.57507h0.255997v-42.597952c87.346283-52.223452 132.760206-191.997984 132.760206-263.626032V249.864128c0-99.480555-111.614828-183.447674-204.285855-183.447673H471.04043c-88.267873 0-204.285855 86.424693-204.285855 183.447673v107.774869c0 89.599059 81.099948 222.512864 154.929573 268.080385v38.194799c0 59.442576-66.354503 88.52387-66.354503 88.52387l-265.571611 132.760206c-31.794866 26.265324-22.118168 66.405703-22.118168 66.405703h861.84055s9.625499-40.140379-22.066968-66.405703z" fill="#353535" /></svg>